<svg width="24" height="24" viewBox="0 0 24 24" fill="none" xmlns="http://www.w3.org/2000/svg">
<path fill-rule="evenodd" clip-rule="evenodd" d="M11.5425 2.45282C11.7267 2.20963 11.7452 1.87911 11.5894 1.61685C11.4335 1.3546 11.1344 1.21287 10.8327 1.25839C5.96272 1.99334 2.25 6.28806 2.25 11.4489C2.25 17.12 6.737 21.75 12.3118 21.75C16.6025 21.75 20.2516 19.0037 21.7018 15.1571C21.81 14.8702 21.7326 14.5463 21.5064 14.3393C21.2802 14.1322 20.9507 14.0838 20.6745 14.2168C19.7065 14.6832 18.6262 14.9438 17.485 14.9438C13.3457 14.9438 9.95787 11.4966 9.95787 7.20395C9.95787 5.4105 10.5502 3.76304 11.5425 2.45282Z" fill="white"/>
</svg>
